<mxfile host="app.diagrams.net" modified="2024-05-30T10:06:15.574Z" agent="Mozilla/5.0 (Macintosh; Intel Mac OS X 10_15_7) AppleWebKit/537.36 (KHTML, like Gecko) Chrome/123.0.0.0 Safari/537.36" etag="hhQps-gLr59dkZXVyCjv" version="24.4.2" type="device">
  <diagram name="Page-1" id="sjG0cp_bgDNt-A9flQbT">
    <mxGraphModel dx="954" dy="616" grid="1" gridSize="10" guides="1" tooltips="1" connect="1" arrows="1" fold="1" page="1" pageScale="1" pageWidth="827" pageHeight="1169" math="0" shadow="0">
      <root>
        <mxCell id="0" />
        <mxCell id="1" parent="0" />
        <mxCell id="s10q3XNN7-QUzSYefw2N-33" value="User Desktop" style="verticalAlign=top;align=left;spacingTop=8;spacingLeft=2;spacingRight=12;shape=cube;size=10;direction=south;fontStyle=4;html=1;whiteSpace=wrap;" vertex="1" parent="1">
          <mxGeometry x="15" y="180" width="180" height="120" as="geometry" />
        </mxCell>
        <mxCell id="s10q3XNN7-QUzSYefw2N-1" value="Decentralot Server&lt;div&gt;&lt;br&gt;&lt;/div&gt;&lt;div&gt;&lt;br&gt;&lt;/div&gt;" style="verticalAlign=top;align=left;spacingTop=8;spacingLeft=2;spacingRight=12;shape=cube;size=10;direction=south;fontStyle=4;html=1;whiteSpace=wrap;" vertex="1" parent="1">
          <mxGeometry x="310" y="100" width="300" height="210" as="geometry" />
        </mxCell>
        <mxCell id="s10q3XNN7-QUzSYefw2N-2" value="«Component»&lt;br&gt;&lt;b&gt;Apache Web server&lt;/b&gt;" style="html=1;whiteSpace=wrap;" vertex="1" parent="1">
          <mxGeometry x="414" y="140" width="110" height="50" as="geometry" />
        </mxCell>
        <mxCell id="s10q3XNN7-QUzSYefw2N-20" value="proxy 1" style="edgeStyle=orthogonalEdgeStyle;rounded=0;orthogonalLoop=1;jettySize=auto;html=1;endArrow=classicThin;endFill=0;startArrow=classic;startFill=0;" edge="1" parent="1" source="s10q3XNN7-QUzSYefw2N-5" target="s10q3XNN7-QUzSYefw2N-2">
          <mxGeometry relative="1" as="geometry">
            <Array as="points">
              <mxPoint x="395" y="210" />
              <mxPoint x="469" y="210" />
            </Array>
          </mxGeometry>
        </mxCell>
        <mxCell id="s10q3XNN7-QUzSYefw2N-5" value="«Component»&lt;br&gt;&lt;b&gt;Frontend&lt;/b&gt;" style="html=1;whiteSpace=wrap;" vertex="1" parent="1">
          <mxGeometry x="340" y="230" width="110" height="50" as="geometry" />
        </mxCell>
        <mxCell id="s10q3XNN7-QUzSYefw2N-21" value="" style="edgeStyle=orthogonalEdgeStyle;rounded=0;orthogonalLoop=1;jettySize=auto;html=1;strokeColor=default;startArrow=classic;startFill=0;" edge="1" parent="1" source="s10q3XNN7-QUzSYefw2N-7" target="s10q3XNN7-QUzSYefw2N-2">
          <mxGeometry relative="1" as="geometry" />
        </mxCell>
        <mxCell id="s10q3XNN7-QUzSYefw2N-22" value="proxy 2" style="edgeLabel;html=1;align=center;verticalAlign=middle;resizable=0;points=[];" vertex="1" connectable="0" parent="s10q3XNN7-QUzSYefw2N-21">
          <mxGeometry x="0.1818" relative="1" as="geometry">
            <mxPoint as="offset" />
          </mxGeometry>
        </mxCell>
        <mxCell id="s10q3XNN7-QUzSYefw2N-7" value="«Component»&lt;br&gt;&lt;b&gt;Indexer&amp;nbsp;&lt;/b&gt;&lt;div&gt;&lt;b&gt;Rest API&lt;/b&gt;&lt;/div&gt;" style="html=1;whiteSpace=wrap;" vertex="1" parent="1">
          <mxGeometry x="484" y="230" width="110" height="50" as="geometry" />
        </mxCell>
        <mxCell id="s10q3XNN7-QUzSYefw2N-8" value="Actor" style="shape=umlActor;verticalLabelPosition=bottom;verticalAlign=top;html=1;" vertex="1" parent="1">
          <mxGeometry x="90" y="360" width="30" height="60" as="geometry" />
        </mxCell>
        <mxCell id="s10q3XNN7-QUzSYefw2N-9" value="Dapp Fe" style="shape=umlFrame;whiteSpace=wrap;html=1;pointerEvents=0;" vertex="1" parent="1">
          <mxGeometry x="30" y="220" width="150" height="70" as="geometry" />
        </mxCell>
        <mxCell id="s10q3XNN7-QUzSYefw2N-10" value="Sui Node" style="verticalAlign=top;align=left;spacingTop=8;spacingLeft=2;spacingRight=12;shape=cube;size=10;direction=south;fontStyle=4;html=1;whiteSpace=wrap;" vertex="1" parent="1">
          <mxGeometry x="307" y="380" width="306" height="120" as="geometry" />
        </mxCell>
        <mxCell id="s10q3XNN7-QUzSYefw2N-11" style="edgeStyle=orthogonalEdgeStyle;rounded=0;orthogonalLoop=1;jettySize=auto;html=1;entryX=0.5;entryY=1;entryDx=0;entryDy=0;entryPerimeter=0;" edge="1" parent="1" source="s10q3XNN7-QUzSYefw2N-8" target="s10q3XNN7-QUzSYefw2N-9">
          <mxGeometry relative="1" as="geometry" />
        </mxCell>
        <mxCell id="s10q3XNN7-QUzSYefw2N-14" style="edgeStyle=orthogonalEdgeStyle;rounded=0;orthogonalLoop=1;jettySize=auto;html=1;entryX=0.487;entryY=0.029;entryDx=0;entryDy=0;entryPerimeter=0;" edge="1" parent="1" source="s10q3XNN7-QUzSYefw2N-2" target="s10q3XNN7-QUzSYefw2N-9">
          <mxGeometry relative="1" as="geometry" />
        </mxCell>
        <mxCell id="s10q3XNN7-QUzSYefw2N-15" value="Serves Fe http" style="edgeLabel;html=1;align=center;verticalAlign=middle;resizable=0;points=[];" vertex="1" connectable="0" parent="s10q3XNN7-QUzSYefw2N-14">
          <mxGeometry x="-0.1688" y="2" relative="1" as="geometry">
            <mxPoint as="offset" />
          </mxGeometry>
        </mxCell>
        <mxCell id="s10q3XNN7-QUzSYefw2N-24" style="edgeStyle=orthogonalEdgeStyle;rounded=0;orthogonalLoop=1;jettySize=auto;html=1;entryX=-0.008;entryY=0.575;entryDx=0;entryDy=0;entryPerimeter=0;startArrow=classic;startFill=0;" edge="1" parent="1" source="s10q3XNN7-QUzSYefw2N-7" target="s10q3XNN7-QUzSYefw2N-10">
          <mxGeometry relative="1" as="geometry" />
        </mxCell>
        <mxCell id="s10q3XNN7-QUzSYefw2N-25" value="Web sockets" style="edgeLabel;html=1;align=center;verticalAlign=middle;resizable=0;points=[];" vertex="1" connectable="0" parent="s10q3XNN7-QUzSYefw2N-24">
          <mxGeometry x="0.0252" y="-2" relative="1" as="geometry">
            <mxPoint as="offset" />
          </mxGeometry>
        </mxCell>
        <mxCell id="s10q3XNN7-QUzSYefw2N-26" value="Decentralot contracts" style="shape=folder;fontStyle=1;spacingTop=10;tabWidth=40;tabHeight=14;tabPosition=left;html=1;whiteSpace=wrap;" vertex="1" parent="1">
          <mxGeometry x="450" y="420" width="70" height="50" as="geometry" />
        </mxCell>
        <mxCell id="s10q3XNN7-QUzSYefw2N-27" style="edgeStyle=orthogonalEdgeStyle;rounded=0;orthogonalLoop=1;jettySize=auto;html=1;entryX=0.617;entryY=1;entryDx=0;entryDy=0;entryPerimeter=0;" edge="1" parent="1" source="s10q3XNN7-QUzSYefw2N-9" target="s10q3XNN7-QUzSYefw2N-10">
          <mxGeometry relative="1" as="geometry" />
        </mxCell>
        <mxCell id="s10q3XNN7-QUzSYefw2N-28" value="Smart contract calls" style="edgeLabel;html=1;align=center;verticalAlign=middle;resizable=0;points=[];" vertex="1" connectable="0" parent="s10q3XNN7-QUzSYefw2N-27">
          <mxGeometry x="-0.0092" y="1" relative="1" as="geometry">
            <mxPoint as="offset" />
          </mxGeometry>
        </mxCell>
      </root>
    </mxGraphModel>
  </diagram>
</mxfile>
